<svg id="Warstwa_1" data-name="Warstwa 1" xmlns="http://www.w3.org/2000/svg" xmlns:xlink="http://www.w3.org/1999/xlink" viewBox="0 0 1440 2560"><defs><style>.cls-1{fill:none;}.cls-2{clip-path:url(#clip-path);}.cls-3{fill:#fff;}.cls-4{fill:#c9961a;}.cls-5{fill:#fdce1e;}.cls-6{opacity:0.35;}.cls-7{clip-path:url(#clip-path-2);}.cls-8{opacity:0.34;}.cls-9{fill:#595b5a;}.cls-10{fill:#0f88b4;}.cls-11{clip-path:url(#clip-path-3);}.cls-12{clip-path:url(#clip-path-4);}.cls-13{isolation:isolate;}.cls-14{fill:#a0a0a0;}.cls-15{clip-path:url(#clip-path-5);}.cls-16{fill:#9e9e9e;}.cls-17{fill:#a3a3a3;}.cls-18{fill:#a8a8a8;}.cls-19{clip-path:url(#clip-path-6);}.cls-20{fill:#999;}.cls-21{fill:#949494;}.cls-22{fill:#8f8f8f;}.cls-23{fill:#8a8a8a;}.cls-24{fill:#858585;}.cls-25{fill:#dadada;}.cls-26{fill:#606264;}.cls-27{clip-path:url(#clip-path-7);}.cls-28{fill:#54575b;}.cls-29{fill:#575b5f;}.cls-30{fill:#5b5e62;}.cls-31{fill:#5e6166;}.cls-32{fill:#616569;}.cls-33{fill:#64686d;}.cls-34{fill:#686c70;}.cls-35{fill:#6b6f74;}.cls-36{clip-path:url(#clip-path-8);}.cls-37{fill:#757678;}.cls-38{clip-path:url(#clip-path-9);}.cls-39{clip-path:url(#clip-path-10);}.cls-40{clip-path:url(#clip-path-11);}.cls-41{fill:#737576;}.cls-42{fill:#6f7173;}.cls-43{fill:#6b6d6f;}.cls-44{fill:#68696b;}.cls-45{fill:#646667;}.cls-46{fill:#606263;}.cls-47{fill:#8b9096;}.cls-48{fill:#54585b;}.cls-49{fill:#9fa2a4;}.cls-50{fill:#a2a2a2;}.cls-51{clip-path:url(#clip-path-13);}.cls-52{clip-path:url(#clip-path-14);}.cls-53{fill:#d9d9d9;}</style><clipPath id="clip-path"><rect class="cls-1" x="-1427.96" y="14.67" width="1407.96" height="2312.61"/></clipPath><clipPath id="clip-path-2"><path class="cls-1" d="M-592.08,2066h0c-383.9-44.73-659.8-400.63-616.26-794.94h0c43.55-394.31,390.06-677.7,773.95-633h0c383.9,44.73,659.81,400.64,616.26,794.94h0C138.32,1827.37-208.19,2110.76-592.08,2066Z"/></clipPath><clipPath id="clip-path-3"><polygon class="cls-1" points="851.88 593.85 731.53 580.19 747.17 434.77 867.52 448.43 851.88 593.85"/></clipPath><clipPath id="clip-path-4"><path class="cls-1" d="M693.07,877h0c-124.3-14.48-213.63-129.72-199.53-257.39h0c14.1-127.67,126.29-219.43,250.59-205h0C868.43,429.12,957.77,544.35,943.67,672h0C929.57,799.69,817.37,891.45,693.07,877Z"/></clipPath><clipPath id="clip-path-5"><path class="cls-1" d="M665.79,772.93l-12.56-7.79c-23.46-14.53-37.23-45.77-33.46-97.26l12.56,7.79C628.56,727.15,642.33,758.39,665.79,772.93Z"/></clipPath><clipPath id="clip-path-6"><path class="cls-1" d="M639.25,799.87l-12.56-7.78c15.34,9.5,33.62,14.63,53.76,16.08a153.11,153.11,0,0,0,16.53.33c59-2,103.93-40.28,110.5-129.9L820,686.38C813.47,776,768.5,814.23,709.54,816.29A155.48,155.48,0,0,1,693,816C672.87,814.5,654.59,809.38,639.25,799.87Z"/></clipPath><clipPath id="clip-path-7"><path class="cls-1" d="M593.52,799.71l6.91,6.37a7.18,7.18,0,0,0-5.3-1.69c-4.1.15-9.23,2.61-13.66,7-6.92,6.77-9.49,15.53-5.76,19.56l.32.32-6.91-6.37-.32-.32c-3.72-4-1.16-12.79,5.76-19.56,4.43-4.34,9.56-6.8,13.66-7A7.22,7.22,0,0,1,593.52,799.71Z"/></clipPath><clipPath id="clip-path-8"><path class="cls-1" d="M725.27,647.58a59.15,59.15,0,0,0,13.18,23.17l-6.9-6.37a59.08,59.08,0,0,1-13.19-23.16Z"/></clipPath><clipPath id="clip-path-9"><path class="cls-1" d="M741.69,674l-6.91-6.37c-1.11-1-2.19-2.1-3.23-3.23l6.9,6.37C739.5,671.88,740.58,673,741.69,674Z"/></clipPath><clipPath id="clip-path-10"><path class="cls-1" d="M564.55,852l-6.91-6.37a18.63,18.63,0,0,0,13.51,4.78,24.86,24.86,0,0,0,16.37-7.34l6.91,6.37a24.88,24.88,0,0,1-16.37,7.34A18.67,18.67,0,0,1,564.55,852Z"/></clipPath><clipPath id="clip-path-11"><path class="cls-1" d="M741.69,674l-6.91-6.37a57.12,57.12,0,0,0,19.83,11.9A63.79,63.79,0,0,0,778.22,683c18.27-.66,37.31-8.61,52.63-23.61,17.15-16.78,25.95-38.79,25.77-59.55l6.91,6.36c.18,20.77-8.62,42.77-25.77,59.56-15.32,15-34.36,23-52.63,23.61a64,64,0,0,1-23.61-3.48A57.12,57.12,0,0,1,741.69,674Z"/></clipPath><clipPath id="clip-path-13"><path class="cls-1" d="M668.55,773.73l-13.8-8.2c-23.91-14.22-38.1-45.48-34.52-97.47l13.8,8.21C630.45,728.26,644.64,759.52,668.55,773.73Z"/></clipPath><clipPath id="clip-path-14"><path class="cls-1" d="M642.55,801.05l-13.8-8.21c15.14,9,33,13.83,52.7,15.14a152,152,0,0,0,16.49.24c58.89-2.38,103.65-40.83,109.83-130.47l13.8,8.21c-6.18,89.64-50.94,128.09-109.82,130.47a154.79,154.79,0,0,1-16.5-.24C675.59,814.88,657.69,810.05,642.55,801.05Z"/></clipPath></defs><g class="cls-2"><path class="cls-3" d="M193.33,1960.82h0c-297.17,355.94-819,397.05-1165.55,91.82l-84.88-74.76c-346.54-305.23-386.57-841.22-89.4-1197.16h0c297.17-355.94,819-397,1165.55-91.82l84.88,74.76C450.47,1068.9,490.5,1604.88,193.33,1960.82Z"/><rect class="cls-4" x="-1139.47" y="690.03" width="1399.12" height="1437.07" rx="684.84"/><rect class="cls-5" x="-1210.96" y="627.9" width="1399.12" height="1437.07" rx="684.84"/><g class="cls-6"><g class="cls-7"><g class="cls-8"><polygon class="cls-9" points="-895.78 1692.17 -662.58 2052.85 -36.57 2197.79 287.21 1704.94 -154.7 906.48 -268.19 1488.64 -444.14 1778.9 -740.46 1755.75 -895.78 1692.17"/></g></g></g></g><path class="cls-10" d="M41.29,0H1398.71a0,0,0,0,1,0,0V578.27a86,86,0,0,1-86,86H133a91.74,91.74,0,0,1-91.74-91.74V0A0,0,0,0,1,41.29,0Z"/><path class="cls-3" d="M436.89,258.75a34,34,0,0,1-14.29-13.39,39.25,39.25,0,0,1-5-20.09V158a2.34,2.34,0,0,1,.59-1.68,2.2,2.2,0,0,1,1.63-.6h23.41a2.2,2.2,0,0,1,1.63.6,2.34,2.34,0,0,1,.59,1.68v67.24q0,6.24,3.48,10a12.06,12.06,0,0,0,9.26,3.73,11.76,11.76,0,0,0,9.11-3.81,14.07,14.07,0,0,0,3.48-9.89V158a2.34,2.34,0,0,1,.59-1.68,2.2,2.2,0,0,1,1.63-.6h23.41a2.16,2.16,0,0,1,1.62.6,2.3,2.3,0,0,1,.6,1.68v67.24a39.25,39.25,0,0,1-5,20.09,34.12,34.12,0,0,1-14.22,13.39,45.76,45.76,0,0,1-21.18,4.71A46.25,46.25,0,0,1,436.89,258.75Z"/><path class="cls-3" d="M530.2,256.77q-9.71-6.69-9.71-17.8V237.6a2.3,2.3,0,0,1,.6-1.68,2.18,2.18,0,0,1,1.63-.6h22.21c1.49,0,2.23.56,2.23,1.67a4.49,4.49,0,0,0,2.59,3.95,13.16,13.16,0,0,0,6.74,1.53,11.92,11.92,0,0,0,5.26-1,3.08,3.08,0,0,0,2-2.82,3,3,0,0,0-2.37-3,60.47,60.47,0,0,0-8.45-1.9c-3.75-.51-7.1-1.12-10.07-1.83a37.76,37.76,0,0,1-8.59-3.2q-12.74-6.39-12.74-20.08,0-12.33,9.33-19.55t24.59-7.23a44.56,44.56,0,0,1,18.15,3.43A27.83,27.83,0,0,1,585.67,195a24.82,24.82,0,0,1,4.3,14.45c0,1.12-.74,1.67-2.22,1.67H566.27c-1.48,0-2.22-.55-2.22-1.67a4.56,4.56,0,0,0-2.23-4A10.76,10.76,0,0,0,555.9,204a11.82,11.82,0,0,0-5.56,1.13,3.48,3.48,0,0,0-2.14,3.12c0,1.63.93,2.74,2.81,3.35a60.79,60.79,0,0,0,9,1.83q.75.15,5.71.91a50.45,50.45,0,0,1,9.55,2.43q8,2.9,12.22,8t4.22,13.31q0,12.48-9.47,18.95t-25.63,6.46Q539.9,263.46,530.2,256.77Z"/><path class="cls-3" d="M625,255.7q-9.71-7.75-12.82-21a46.51,46.51,0,0,1-1.48-12.18A48.09,48.09,0,0,1,612.47,209q3.56-12.62,13.11-19.85t23.33-7.23q13.77,0,23.18,7.23a36.7,36.7,0,0,1,13,19.55,50.15,50.15,0,0,1,1.78,13.54,58.25,58.25,0,0,1-1.18,11.57q-3.12,13.68-12.82,21.68t-24.07,8Q634.69,263.46,625,255.7Zm30-19.39a14.83,14.83,0,0,0,3.26-7.08,34.88,34.88,0,0,0,.59-6.85,33.89,33.89,0,0,0-.74-7q-2.22-9-9.33-9-7.41,0-9.33,9a26,26,0,0,0-.74,7,34.88,34.88,0,0,0,.59,6.85q2.22,9.74,9.48,9.74A7.94,7.94,0,0,0,655,236.31Z"/><path class="cls-3" d="M716.51,256.77q-9.69-6.69-9.7-17.8V237.6a2.34,2.34,0,0,1,.59-1.68,2.2,2.2,0,0,1,1.63-.6h22.22c1.48,0,2.22.56,2.22,1.67a4.5,4.5,0,0,0,2.6,3.95,13.11,13.11,0,0,0,6.74,1.53,11.87,11.87,0,0,0,5.25-1,3.08,3.08,0,0,0,2-2.82,3,3,0,0,0-2.37-3,60.83,60.83,0,0,0-8.45-1.9q-5.62-.77-10.07-1.83a37.76,37.76,0,0,1-8.59-3.2q-12.75-6.39-12.74-20.08,0-12.33,9.33-19.55t24.59-7.23a44.63,44.63,0,0,1,18.15,3.43A27.89,27.89,0,0,1,772,195a24.89,24.89,0,0,1,4.29,14.45c0,1.12-.74,1.67-2.22,1.67H752.58c-1.48,0-2.22-.55-2.22-1.67a4.55,4.55,0,0,0-2.22-4,10.76,10.76,0,0,0-5.92-1.44,11.82,11.82,0,0,0-5.56,1.13,3.49,3.49,0,0,0-2.15,3.12c0,1.63.94,2.74,2.82,3.35a60.79,60.79,0,0,0,9,1.83q.74.15,5.71.91a50.64,50.64,0,0,1,9.55,2.43q8,2.9,12.22,8t4.22,13.31q0,12.48-9.48,18.95T743,263.46Q726.21,263.46,716.51,256.77Z"/><path class="cls-3" d="M903.51,179.63a2.16,2.16,0,0,1-1.63.61H857.74c-.5,0-.74.25-.74.76v14.3c0,.51.24.76.74.76h27.4a2.19,2.19,0,0,1,1.63.61,2.29,2.29,0,0,1,.59,1.67v19.78a2.3,2.3,0,0,1-.59,1.68,2.19,2.19,0,0,1-1.63.61h-27.4c-.5,0-.74.25-.74.76V260a2.29,2.29,0,0,1-.6,1.68,2.16,2.16,0,0,1-1.62.61H831.37a2.2,2.2,0,0,1-1.63-.61,2.32,2.32,0,0,1-.59-1.68V158a2.34,2.34,0,0,1,.59-1.68,2.2,2.2,0,0,1,1.63-.6h70.51a2.2,2.2,0,0,1,1.63.6,2.34,2.34,0,0,1,.59,1.68V178A2.3,2.3,0,0,1,903.51,179.63Z"/><path class="cls-3" d="M924.38,261.64a2.28,2.28,0,0,1-.59-1.68V185.41a2.26,2.26,0,0,1,.59-1.67,2.15,2.15,0,0,1,1.63-.61h23.4a2.15,2.15,0,0,1,1.63.61,2.26,2.26,0,0,1,.59,1.67V260a2.28,2.28,0,0,1-.59,1.68,2.19,2.19,0,0,1-1.63.61H926A2.19,2.19,0,0,1,924.38,261.64Zm3.48-87.87a15.5,15.5,0,0,1,0-20.61,14.61,14.61,0,0,1,20,0,14.07,14.07,0,0,1,3.92,10.34,14.22,14.22,0,0,1-3.92,10.2,14.31,14.31,0,0,1-20,.07Z"/><path class="cls-3" d="M973.17,261.86a1.18,1.18,0,0,1-.52-1,2.22,2.22,0,0,1,.45-1.36l23.11-36.36a.81.81,0,0,0,0-.92L973.1,185.87a2.75,2.75,0,0,1-.45-1.37,1.21,1.21,0,0,1,.52-1,2.38,2.38,0,0,1,1.41-.38h24.89a2.89,2.89,0,0,1,2.66,1.52l9.34,15.37c.29.61.59.61.88,0l9.34-15.37a2.89,2.89,0,0,1,2.66-1.52H1051a2.35,2.35,0,0,1,1.4.38,1.18,1.18,0,0,1,.52,1,2.75,2.75,0,0,1-.45,1.37l-23.1,36.36a1.45,1.45,0,0,0,0,.92l23.1,36.36a2.22,2.22,0,0,1,.45,1.36,1.16,1.16,0,0,1-.52,1,2.28,2.28,0,0,1-1.4.39h-24.89a2.89,2.89,0,0,1-2.67-1.53l-9.33-15.36c-.29-.61-.59-.61-.89,0l-9.33,15.36a2.89,2.89,0,0,1-2.67,1.53H974.58A2.31,2.31,0,0,1,973.17,261.86Z"/><path class="cls-3" d="M947.38,842.91h0C851.16,958.15,682.2,971.47,570,872.64l-27.48-24.21c-112.21-98.83-125.17-272.37-29-387.62h0C609.78,345.56,778.74,332.25,891,431.08l27.48,24.2C1030.64,554.11,1043.6,727.66,947.38,842.91Z"/><rect class="cls-4" x="515.84" y="431.44" width="453.01" height="465.3" rx="221.74"/><rect class="cls-5" x="492.69" y="411.32" width="453.01" height="465.3" rx="221.74"/><g class="cls-6"><g class="cls-12"><g class="cls-8"><polygon class="cls-9" points="594.74 755.92 670.25 872.7 872.94 919.63 977.78 760.05 834.69 501.52 797.95 690.02 740.97 784 645.03 776.5 594.74 755.92"/></g></g></g><g class="cls-13"><polygon class="cls-14" points="633.59 479.29 646.15 487.07 632.33 675.67 619.77 667.88 633.59 479.29"/><g class="cls-13"><g class="cls-15"><g class="cls-13"><path class="cls-16" d="M619.77,667.88l12.56,7.79c-.52,7.07-.7,13.77-.58,20.09L619.19,688q-.2-9.48.58-20.09"/><path class="cls-17" d="M619.19,688l12.56,7.79a151.78,151.78,0,0,0,2.73,26.69l-12.56-7.78a151.9,151.9,0,0,1-2.73-26.7"/><path class="cls-18" d="M621.92,714.67l12.56,7.78c3.94,19.66,11.88,34.17,22.73,44l-12.56-7.78c-10.85-9.85-18.8-24.35-22.73-44"/><path class="cls-17" d="M644.65,758.68l12.56,7.78a59.09,59.09,0,0,0,8.53,6.44l-12.56-7.78a59.26,59.26,0,0,1-8.53-6.44"/><path class="cls-16" d="M653.18,765.12l12.56,7.78,0,0-12.56-7.79-.05,0"/></g></g></g><polygon class="cls-14" points="821.08 492.83 833.64 500.61 820.04 686.38 807.48 678.6 821.08 492.83"/><g class="cls-13"><g class="cls-19"><g class="cls-13"><path class="cls-16" d="M807.48,678.6,820,686.38q-.49,6.79-1.29,13.19l-12.56-7.78q.79-6.4,1.29-13.19"/><path class="cls-20" d="M806.19,691.79l12.56,7.78a215.34,215.34,0,0,1-5.13,27.6l-12.56-7.79a216.59,216.59,0,0,0,5.13-27.59"/><path class="cls-21" d="M801.06,719.38l12.56,7.79A166.57,166.57,0,0,1,807,747.5l-12.57-7.78a165,165,0,0,0,6.61-20.34"/><path class="cls-22" d="M794.45,739.72,807,747.5a133.72,133.72,0,0,1-8,16.6l-12.56-7.78a133.7,133.7,0,0,0,8-16.6"/><path class="cls-23" d="M786.48,756.32,799,764.1a111.62,111.62,0,0,1-10.44,15.27L776,771.59a112.24,112.24,0,0,0,10.44-15.27"/><path class="cls-24" d="M776,771.59l12.56,7.78c-19.81,24.29-47.42,35.81-79.06,36.92A155.48,155.48,0,0,1,693,816c-20.15-1.46-38.43-6.58-53.77-16.09l-12.56-7.78c15.34,9.5,33.62,14.63,53.76,16.08a153.11,153.11,0,0,0,16.53.33c31.64-1.1,59.25-12.62,79.06-36.91"/></g></g></g><path class="cls-25" d="M593.23,476.36l40.36,2.93L619.77,667.88c-5.23,71.38,23.26,103.85,64.52,106.83a94.89,94.89,0,0,0,9.93.2c40.45-1.41,67.92-31.17,72.69-96.4l13.82-188.6,40.35,2.92L807.48,678.6c-6.57,89.62-51.54,127.85-110.5,129.9a153.11,153.11,0,0,1-16.53-.33c-63.25-4.56-108.2-45.34-101-144.14Z"/></g><g class="cls-13"><polygon class="cls-26" points="800.39 539.11 807.3 545.48 763.3 588.55 756.39 582.18 800.39 539.11"/><g class="cls-13"><g class="cls-27"><g class="cls-13"><path class="cls-28" d="M593.52,799.71l6.91,6.37a7.18,7.18,0,0,0-5.3-1.69c-4.1.15-9.23,2.61-13.66,7-.68.66-1.32,1.34-1.91,2L572.65,807c.59-.69,1.23-1.38,1.91-2,4.43-4.34,9.56-6.8,13.66-7a7.22,7.22,0,0,1,5.3,1.69"/><path class="cls-29" d="M572.65,807l6.91,6.37a27.61,27.61,0,0,0-2.77,3.86l-6.91-6.37a28.21,28.21,0,0,1,2.77-3.86"/><path class="cls-30" d="M569.88,810.87l6.91,6.37a22,22,0,0,0-1.51,3l-6.91-6.37a23.2,23.2,0,0,1,1.51-3"/><path class="cls-31" d="M568.37,813.85l6.91,6.37a20.42,20.42,0,0,0-.81,2.39l-6.91-6.37a20.42,20.42,0,0,1,.81-2.39"/><path class="cls-32" d="M567.56,816.24l6.91,6.37a15,15,0,0,0-.39,2l-6.9-6.37a13.5,13.5,0,0,1,.38-2"/><path class="cls-33" d="M567.18,818.24l6.9,6.37a12,12,0,0,0-.07,1.78L567.1,820a10.87,10.87,0,0,1,.08-1.79"/><path class="cls-34" d="M567.1,820l6.91,6.36a9.06,9.06,0,0,0,.29,1.93L567.4,822a8.47,8.47,0,0,1-.3-1.92"/><path class="cls-35" d="M567.4,822l6.9,6.37a6.33,6.33,0,0,0,1.21,2.35l-6.91-6.36a6.21,6.21,0,0,1-1.2-2.36"/><path class="cls-34" d="M568.6,824.31l6.91,6.36c.07.08.13.16.2.23l.32.32-6.91-6.37-.32-.32-.2-.22"/></g></g></g><g class="cls-13"><g class="cls-36"><g class="cls-13"><path class="cls-35" d="M718.36,641.22l6.91,6.36a59.31,59.31,0,0,0,11.54,21.32l-6.91-6.37a59.51,59.51,0,0,1-11.54-21.31"/><path class="cls-34" d="M729.9,662.53l6.91,6.37c.53.62,1.08,1.24,1.64,1.85l-6.9-6.37c-.57-.61-1.12-1.22-1.65-1.85"/></g></g></g><polygon class="cls-37" points="756.39 582.18 763.3 588.55 761.14 648.55 754.23 642.18 756.39 582.18"/><g class="cls-13"><g class="cls-38"><g class="cls-13"><path class="cls-34" d="M731.55,664.38l6.9,6.37c1,1.13,2.13,2.2,3.24,3.23l-6.91-6.37c-1.11-1-2.19-2.1-3.23-3.23"/></g></g></g><g class="cls-13"><g class="cls-39"><g class="cls-13"><path class="cls-28" d="M587.52,843.09l6.91,6.37a24.88,24.88,0,0,1-16.37,7.34A18.67,18.67,0,0,1,564.55,852l-6.91-6.37a18.63,18.63,0,0,0,13.51,4.78,24.86,24.86,0,0,0,16.37-7.34"/></g></g></g><g class="cls-13"><g class="cls-40"><g class="cls-13"><path class="cls-41" d="M856.62,599.83l6.91,6.36a76.78,76.78,0,0,1-.51,9.31l-6.91-6.37a76.61,76.61,0,0,0,.51-9.3"/><path class="cls-42" d="M856.11,609.13,863,615.5a80.72,80.72,0,0,1-2,10.75l-6.91-6.36a79.58,79.58,0,0,0,2-10.76"/><path class="cls-43" d="M854.07,619.89l6.91,6.36a82.93,82.93,0,0,1-3.57,10.59l-6.91-6.37a83.32,83.32,0,0,0,3.57-10.58"/><path class="cls-44" d="M850.5,630.47l6.91,6.37a85.6,85.6,0,0,1-5.48,10.91L845,641.38a84.3,84.3,0,0,0,5.48-10.91"/><path class="cls-45" d="M845,641.38l6.91,6.37a87.81,87.81,0,0,1-8.65,12.09l-6.91-6.37A86.62,86.62,0,0,0,845,641.38"/><path class="cls-46" d="M836.37,653.47l6.91,6.37q-2.6,3-5.52,5.91c-15.32,15-34.36,23-52.63,23.61a64,64,0,0,1-23.61-3.48A57.12,57.12,0,0,1,741.69,674l-6.91-6.37a57.12,57.12,0,0,0,19.83,11.9A63.79,63.79,0,0,0,778.22,683c18.27-.66,37.31-8.61,52.63-23.61q2.92-2.86,5.52-5.91"/></g></g></g><path class="cls-47" d="M731.55,664.38a57.09,57.09,0,0,0,23.06,15.13L587.52,843.09a24.86,24.86,0,0,1-16.37,7.34,18.55,18.55,0,0,1-14.52-5.79l-8-8.6c-7.7-8.31-6.35-22.48,3-31.65L718.36,641.22A59.08,59.08,0,0,0,731.55,664.38ZM588.08,819.57c6.92-6.76,9.48-15.53,5.76-19.54a7,7,0,0,0-5.62-2c-4.1.15-9.23,2.61-13.66,7-6.92,6.77-9.48,15.53-5.76,19.56a7,7,0,0,0,5.6,2c4.1-.15,9.24-2.62,13.68-7"/><polygon class="cls-48" points="754.61 679.51 761.52 685.88 594.43 849.46 587.52 843.09 754.61 679.51"/><path class="cls-49" d="M793.88,539q3.29-.12,6.51.07l-44,43.07-2.16,60,58.38.73,44-43.08c.18,20.76-8.62,42.77-25.77,59.55-15.32,15-34.36,23-52.63,23.61a63.79,63.79,0,0,1-23.61-3.48,57.09,57.09,0,0,1-23.06-15.13,59.08,59.08,0,0,1-13.19-23.16c-7.72-25.44.38-56.51,22.91-78.57C756.6,547.65,775.63,539.7,793.88,539Z"/></g><g class="cls-11"><g class="cls-13"><polygon class="cls-50" points="633.21 479.44 647.01 487.65 634.03 676.27 620.23 668.06 633.21 479.44"/><g class="cls-13"><g class="cls-51"><g class="cls-13"><path class="cls-16" d="M620.23,668.06l13.8,8.21q-.45,6.6-.53,12.75l-13.8-8.2q.07-6.17.53-12.76"/><path class="cls-17" d="M619.7,680.82l13.8,8.2a168.84,168.84,0,0,0,1.79,27.88l-13.8-8.2a168.91,168.91,0,0,1-1.79-27.88"/><path class="cls-18" d="M621.49,708.7l13.8,8.2c3.58,23.22,12.33,39.86,24.68,50.62l-13.81-8.21c-12.34-10.76-21.09-27.39-24.67-50.61"/><path class="cls-17" d="M646.16,759.31,660,767.52a58.79,58.79,0,0,0,8,5.86l-13.8-8.21a58.65,58.65,0,0,1-8-5.86"/><path class="cls-16" d="M654.17,765.17l13.8,8.21c.19.12.38.24.58.35l-13.8-8.2-.58-.36"/></g></g></g><polygon class="cls-50" points="820.55 491.96 834.35 500.17 821.57 685.96 807.76 677.75 820.55 491.96"/><g class="cls-13"><g class="cls-52"><g class="cls-13"><path class="cls-16" d="M807.77,677.75l13.8,8.21q-.75,10.78-2.22,20.6l-13.81-8.21q1.47-9.81,2.23-20.6"/><path class="cls-20" d="M805.54,698.35l13.81,8.21A202.23,202.23,0,0,1,814,731.72l-13.8-8.21a200.47,200.47,0,0,0,5.34-25.16"/><path class="cls-21" d="M800.2,723.51l13.8,8.21a157.83,157.83,0,0,1-6.58,18.83l-13.8-8.21a159.62,159.62,0,0,0,6.58-18.83"/><path class="cls-22" d="M793.62,742.34l13.8,8.21a131.63,131.63,0,0,1-7.91,15.66L785.7,758a129.44,129.44,0,0,0,7.92-15.66"/><path class="cls-23" d="M785.7,758l13.81,8.21a109.49,109.49,0,0,1-10.37,14.6l-13.8-8.2A109.29,109.29,0,0,0,785.7,758"/><path class="cls-24" d="M775.34,772.61l13.8,8.2c-19.57,23.22-46.55,34.37-77.39,35.62a154.79,154.79,0,0,1-16.5-.24c-19.66-1.31-37.56-6.14-52.7-15.14l-13.8-8.21c15.14,9,33,13.83,52.7,15.14a152,152,0,0,0,16.49.24c30.85-1.24,57.82-12.39,77.4-35.61"/></g></g></g><path class="cls-53" d="M592.89,476.75l40.32,2.69-13,188.62c-4.92,71.39,23.67,103.69,64.91,106.45a89.25,89.25,0,0,0,9.92.14c40.38-1.63,67.7-31.53,72.19-96.77l13-188.62,40.32,2.7L807.77,677.75c-6.18,89.64-50.94,128.09-109.83,130.47a152,152,0,0,1-16.49-.24c-63.2-4.22-108.28-44.74-101.47-143.55Z"/></g></g></svg>