<svg id="Warstwa_1" data-name="Warstwa 1" xmlns="http://www.w3.org/2000/svg" xmlns:xlink="http://www.w3.org/1999/xlink" viewBox="0 0 1440 2560"><defs><style>.cls-1{fill:none;}.cls-2{fill:#0f88b4;}.cls-3{fill:#fff;}.cls-4{clip-path:url(#clip-path);}.cls-5{clip-path:url(#clip-path-2);}.cls-6{fill:#c9961a;}.cls-7{fill:#fdce1e;}.cls-8{opacity:0.35;}.cls-9{clip-path:url(#clip-path-3);}.cls-10{opacity:0.34;}.cls-11{fill:#595b5a;}.cls-12{isolation:isolate;}.cls-13{fill:#a0a0a0;}.cls-14{clip-path:url(#clip-path-4);}.cls-15{fill:#9e9e9e;}.cls-16{fill:#a3a3a3;}.cls-17{fill:#a8a8a8;}.cls-18{clip-path:url(#clip-path-5);}.cls-19{fill:#999;}.cls-20{fill:#949494;}.cls-21{fill:#8f8f8f;}.cls-22{fill:#8a8a8a;}.cls-23{fill:#858585;}.cls-24{fill:#dadada;}.cls-25{fill:#606264;}.cls-26{clip-path:url(#clip-path-6);}.cls-27{fill:#6b6f74;}.cls-28{clip-path:url(#clip-path-7);}.cls-29{fill:#54575b;}.cls-30{fill:#575b5f;}.cls-31{fill:#5b5e62;}.cls-32{fill:#5e6166;}.cls-33{fill:#616569;}.cls-34{fill:#64686d;}.cls-35{fill:#686c70;}.cls-36{clip-path:url(#clip-path-8);}.cls-37{clip-path:url(#clip-path-9);}.cls-38{fill:#757678;}.cls-39{clip-path:url(#clip-path-10);}.cls-40{clip-path:url(#clip-path-11);}.cls-41{clip-path:url(#clip-path-12);}.cls-42{fill:#606263;}.cls-43{fill:#8b9096;}.cls-44{fill:#54585b;}.cls-45{clip-path:url(#clip-path-13);}.cls-46{fill:#737576;}.cls-47{fill:#6f7173;}.cls-48{fill:#6b6d6f;}.cls-49{fill:#68696b;}.cls-50{fill:#646667;}.cls-51{fill:#9fa2a4;}.cls-52{fill:#a2a2a2;}.cls-53{clip-path:url(#clip-path-15);}.cls-54{clip-path:url(#clip-path-16);}.cls-55{fill:#d9d9d9;}</style><clipPath id="clip-path"><rect class="cls-1" x="32.04" y="14.67" width="1407.96" height="2312.61"/></clipPath><clipPath id="clip-path-2"><polygon class="cls-1" points="1358.37 1191.63 986.68 1149.45 1035 700.3 1406.69 742.49 1358.37 1191.63"/></clipPath><clipPath id="clip-path-3"><path class="cls-1" d="M867.92,2066h0C484,2021.3,208.12,1665.4,251.66,1271.09h0c43.55-394.31,390.06-677.7,773.95-633h0c383.9,44.73,659.81,400.64,616.26,794.94h0C1598.32,1827.37,1251.81,2110.76,867.92,2066Z"/></clipPath><clipPath id="clip-path-4"><path class="cls-1" d="M783.65,1744.7l-38.8-24c-72.45-44.89-115-141.38-103.33-300.4l38.8,24C668.67,1603.33,711.2,1699.82,783.65,1744.7Z"/></clipPath><clipPath id="clip-path-5"><path class="cls-1" d="M701.7,1827.93l-38.8-24c47.37,29.34,103.84,45.18,166.05,49.67a478.16,478.16,0,0,0,51,1c182.1-6.36,321-124.38,341.27-401.22l38.8,24c-20.27,276.84-159.17,394.86-341.27,401.22a478.16,478.16,0,0,1-51-1C805.54,1873.11,749.07,1857.27,701.7,1827.93Z"/></clipPath><clipPath id="clip-path-6"><path class="cls-1" d="M983.46,1395.38l-21.34-19.66a186.69,186.69,0,0,1-9.14-18.56l21.23,19.57.06,0-1.28-1.17-1.26-1.17L969.1,1372l-2.72-2.51L963.6,1367l-2.78-2.57-2.73-2.51-2.63-2.42-2.48-2.29a193.56,193.56,0,0,1-7-19.24l21.34,19.66A187.85,187.85,0,0,0,983.46,1395.38Z"/></clipPath><clipPath id="clip-path-7"><path class="cls-1" d="M560.44,1827.4l21.33,19.67c-4.09-3.78-9.78-5.45-16.33-5.22-12.67.46-28.53,8.08-42.23,21.49-21.36,20.91-29.29,48-17.76,60.41.32.34.65.67,1,1l-21.33-19.67c-.34-.31-.67-.64-1-1-11.52-12.45-3.6-39.5,17.76-60.41,13.7-13.41,29.56-21,42.23-21.48C550.65,1822,556.34,1823.62,560.44,1827.4Z"/></clipPath><clipPath id="clip-path-8"><path class="cls-1" d="M994.71,1412.87l-21.34-19.66a182.88,182.88,0,0,1-11.25-17.49l21.28,19.61.06.05A180.41,180.41,0,0,0,994.71,1412.87Z"/></clipPath><clipPath id="clip-path-9"><path class="cls-1" d="M994.71,1412.87a177.17,177.17,0,0,0,13.38,16.27l-21.34-19.67a180.08,180.08,0,0,1-13.38-16.26l21.23,19.56A1,1,0,0,1,994.71,1412.87Z"/></clipPath><clipPath id="clip-path-10"><path class="cls-1" d="M1018.07,1439.1l-21.34-19.67q-5.15-4.74-10-10l21.34,19.67Q1012.92,1434.34,1018.07,1439.1Z"/></clipPath><clipPath id="clip-path-11"><path class="cls-1" d="M471,1989l-21.34-19.67c11.36,10.47,26.28,15.36,41.77,14.79,17.55-.63,35.83-8.26,50.54-22.66l21.34,19.67c-14.71,14.4-33,22-50.55,22.66C497.22,2004.3,482.31,1999.42,471,1989Z"/></clipPath><clipPath id="clip-path-12"><path class="cls-1" d="M1079.32,1475.85a176.66,176.66,0,0,1-61.18-36.69L996.8,1419.5a176.61,176.61,0,0,0,61.19,36.69Z"/></clipPath><clipPath id="clip-path-13"><path class="cls-1" d="M1152.22,1486.62a197.58,197.58,0,0,1-72.9-10.77L1058,1456.19a197.34,197.34,0,0,0,72.9,10.76c56.41-2,115.23-26.59,162.55-72.92,53-51.88,80.14-119.84,79.57-184l21.34,19.67c.57,64.11-26.59,132.07-79.57,184C1267.46,1460,1208.64,1484.56,1152.22,1486.62Z"/></clipPath><clipPath id="clip-path-15"><path class="cls-1" d="M792.17,1747.18l-42.63-25.34c-73.83-43.9-117.67-140.45-106.61-301l42.62,25.34C674.5,1606.74,718.34,1703.28,792.17,1747.18Z"/></clipPath><clipPath id="clip-path-16"><path class="cls-1" d="M711.87,1831.55l-42.63-25.34C716,1834,771.29,1848.91,832,1853a473.62,473.62,0,0,0,51,.74c181.86-7.35,320.09-126.1,339.15-403l42.62,25.35c-19,276.86-157.29,395.61-339.14,403a478.81,478.81,0,0,1-51-.74C813.91,1874.25,758.61,1859.35,711.87,1831.55Z"/></clipPath></defs><path class="cls-2" d="M43.3,0H1403.16a0,0,0,0,1,0,0V1700.77a143.41,143.41,0,0,1-143.41,143.41H196.3a153,153,0,0,1-153-153V0a0,0,0,0,1,0,0Z"/><path class="cls-3" d="M413.33,379.23A33.94,33.94,0,0,1,399,365.82a39.37,39.37,0,0,1-5-20.12V278.33a2.26,2.26,0,0,1,.59-1.67,2.15,2.15,0,0,1,1.63-.61h23.45a2.16,2.16,0,0,1,1.63.61,2.3,2.3,0,0,1,.59,1.67V345.7q0,6.26,3.49,10a12.1,12.1,0,0,0,9.28,3.73,11.78,11.78,0,0,0,9.12-3.81,14.08,14.08,0,0,0,3.49-9.91V278.33a2.3,2.3,0,0,1,.59-1.67,2.17,2.17,0,0,1,1.64-.61h23.44a2.15,2.15,0,0,1,1.63.61,2.26,2.26,0,0,1,.6,1.67V345.7a39.37,39.37,0,0,1-5.05,20.12,34,34,0,0,1-14.24,13.41,50.14,50.14,0,0,1-42.52,0Z"/><path class="cls-3" d="M506.8,377.25q-9.72-6.71-9.72-17.83v-1.37a2.3,2.3,0,0,1,.6-1.68,2.19,2.19,0,0,1,1.63-.61h22.26q2.22,0,2.22,1.68a4.51,4.51,0,0,0,2.6,4,13.2,13.2,0,0,0,6.75,1.53,11.78,11.78,0,0,0,5.27-1,3,3,0,0,0-.37-5.79,61.86,61.86,0,0,0-8.46-1.9q-5.64-.76-10.09-1.83a38.57,38.57,0,0,1-8.61-3.2q-12.75-6.4-12.76-20.12,0-12.34,9.35-19.59t24.63-7.24a44.71,44.71,0,0,1,18.18,3.43,28,28,0,0,1,12.1,9.68,24.9,24.9,0,0,1,4.3,14.48q0,1.68-2.22,1.68H542.94c-1.49,0-2.23-.56-2.23-1.68a4.57,4.57,0,0,0-2.22-4,10.75,10.75,0,0,0-5.94-1.45A11.81,11.81,0,0,0,527,325.5a3.48,3.48,0,0,0-2.15,3.13c0,1.63.93,2.74,2.81,3.35a59.81,59.81,0,0,0,9.06,1.83q.74.15,5.71.92a50.11,50.11,0,0,1,9.57,2.44q8,2.9,12.24,8t4.23,13.33q0,12.51-9.49,19T533.29,384Q516.52,384,506.8,377.25Z"/><path class="cls-3" d="M601.76,376.19q-9.72-7.79-12.83-21A46.57,46.57,0,0,1,587.44,343a48.62,48.62,0,0,1,1.78-13.57q3.57-12.64,13.14-19.89t23.37-7.24q13.8,0,23.22,7.24a36.85,36.85,0,0,1,13,19.59,50.7,50.7,0,0,1,1.78,13.56,57.65,57.65,0,0,1-1.19,11.59Q659.41,368,649.69,376t-24.11,8Q611.48,384,601.76,376.19Zm30-19.44a14.88,14.88,0,0,0,3.27-7.09,34.92,34.92,0,0,0,.59-6.86,34,34,0,0,0-.74-7q-2.22-9-9.35-9-7.43,0-9.35,9a26.12,26.12,0,0,0-.74,7,34.92,34.92,0,0,0,.59,6.86q2.24,9.76,9.5,9.76A7.93,7.93,0,0,0,631.81,356.75Z"/><path class="cls-3" d="M693.45,377.25q-9.71-6.71-9.71-17.83v-1.37a2.3,2.3,0,0,1,.59-1.68,2.19,2.19,0,0,1,1.63-.61h22.26c1.49,0,2.23.56,2.23,1.68a4.49,4.49,0,0,0,2.59,4,13.22,13.22,0,0,0,6.76,1.53,11.77,11.77,0,0,0,5.26-1,3.08,3.08,0,0,0,2-2.82,3,3,0,0,0-2.38-3,61.86,61.86,0,0,0-8.46-1.9c-3.75-.51-7.12-1.12-10.09-1.83a38.49,38.49,0,0,1-8.6-3.2q-12.76-6.4-12.76-20.12,0-12.34,9.34-19.59t24.64-7.24a44.78,44.78,0,0,1,18.18,3.43A28,28,0,0,1,749,315.37a24.9,24.9,0,0,1,4.3,14.48q0,1.68-2.22,1.68H729.59q-2.22,0-2.22-1.68a4.58,4.58,0,0,0-2.23-4,10.75,10.75,0,0,0-5.94-1.45,11.81,11.81,0,0,0-5.56,1.14,3.48,3.48,0,0,0-2.15,3.13c0,1.63.94,2.74,2.82,3.35a59.35,59.35,0,0,0,9.05,1.83q.74.15,5.71.92a49.92,49.92,0,0,1,9.57,2.44q8,2.9,12.24,8t4.23,13.33q0,12.51-9.49,19T719.94,384Q703.17,384,693.45,377.25Z"/><path class="cls-3" d="M880.79,300a2.2,2.2,0,0,1-1.63.61H834.94a.67.67,0,0,0-.75.76v14.32a.67.67,0,0,0,.75.77h27.45a2.15,2.15,0,0,1,1.63.61,2.26,2.26,0,0,1,.59,1.67v19.82a2.26,2.26,0,0,1-.59,1.67,2.15,2.15,0,0,1-1.63.62H834.94a.67.67,0,0,0-.75.76v38.86a2.32,2.32,0,0,1-.59,1.68,2.16,2.16,0,0,1-1.63.61H808.52a2.15,2.15,0,0,1-1.63-.61,2.28,2.28,0,0,1-.59-1.68V278.33a2.26,2.26,0,0,1,.59-1.67,2.15,2.15,0,0,1,1.63-.61h70.64a2.16,2.16,0,0,1,1.63.61,2.3,2.3,0,0,1,.59,1.67v20A2.34,2.34,0,0,1,880.79,300Z"/><path class="cls-3" d="M901.7,382.13a2.29,2.29,0,0,1-.6-1.68V305.77a2.3,2.3,0,0,1,.6-1.68,2.17,2.17,0,0,1,1.63-.61h23.45a2.22,2.22,0,0,1,1.63.61,2.34,2.34,0,0,1,.59,1.68v74.68a2.32,2.32,0,0,1-.59,1.68,2.18,2.18,0,0,1-1.63.61H903.33A2.13,2.13,0,0,1,901.7,382.13Zm3.48-88a15.53,15.53,0,0,1,0-20.65,14.63,14.63,0,0,1,20,0,14.06,14.06,0,0,1,3.93,10.36A14.21,14.21,0,0,1,925.22,294a14.34,14.34,0,0,1-20,.08Z"/><path class="cls-3" d="M950.58,382.36a1.16,1.16,0,0,1-.52-1,2.29,2.29,0,0,1,.44-1.37l23.15-36.43a.78.78,0,0,0,0-.92L950.5,306.23a2.87,2.87,0,0,1-.44-1.38,1.18,1.18,0,0,1,.52-1,2.36,2.36,0,0,1,1.41-.38h24.93a2.9,2.9,0,0,1,2.67,1.52l9.35,15.4c.3.61.59.61.89,0l9.35-15.4a2.9,2.9,0,0,1,2.67-1.52h26.71a2.38,2.38,0,0,1,1.41.38,1.18,1.18,0,0,1,.52,1,2.79,2.79,0,0,1-.45,1.38l-23.15,36.42a1.45,1.45,0,0,0,0,.92L1030,380a2.23,2.23,0,0,1,.45,1.37,1.16,1.16,0,0,1-.52,1,2.38,2.38,0,0,1-1.41.38h-24.93a2.89,2.89,0,0,1-2.67-1.53l-9.35-15.39c-.3-.61-.6-.61-.89,0l-9.35,15.39a2.9,2.9,0,0,1-2.67,1.53H952A2.36,2.36,0,0,1,950.58,382.36Z"/><g class="cls-4"><path class="cls-3" d="M1653.33,1960.82h0c-297.17,355.94-819,397.05-1165.55,91.82l-84.88-74.76C56.36,1672.66,16.33,1136.67,313.5,780.73h0c297.17-355.94,819-397,1165.55-91.82l84.88,74.76C1910.47,1068.9,1950.5,1604.88,1653.33,1960.82Z"/><rect class="cls-6" x="320.53" y="690.03" width="1399.12" height="1437.07" rx="684.84"/><rect class="cls-7" x="249.04" y="627.9" width="1399.12" height="1437.07" rx="684.84"/><g class="cls-8"><g class="cls-9"><g class="cls-10"><polygon class="cls-11" points="564.22 1692.17 797.42 2052.85 1423.43 2197.79 1747.21 1704.94 1305.3 906.48 1191.81 1488.64 1015.86 1778.9 719.54 1755.75 564.22 1692.17"/></g></g></g><g class="cls-12"><polygon class="cls-13" points="684.18 837.79 722.98 861.83 680.32 1444.31 641.52 1420.27 684.18 837.79"/><g class="cls-12"><g class="cls-14"><g class="cls-12"><path class="cls-15" d="M641.52,1420.27l38.8,24q-2.4,32.78-1.8,62l-38.8-24q-.57-29.26,1.8-62"/><path class="cls-16" d="M639.72,1482.31l38.8,24c.59,30.21,3.49,57.66,8.44,82.45l-38.8-24c-4.95-24.79-7.85-52.24-8.44-82.45"/><path class="cls-17" d="M648.16,1564.76l38.8,24c12.15,60.73,36.69,105.52,70.2,135.94l-38.8-24c-33.51-30.42-58.05-75.21-70.2-135.94"/><path class="cls-16" d="M718.36,1700.7l38.8,24a182.56,182.56,0,0,0,26.35,19.88l-38.8-24a182.56,182.56,0,0,1-26.35-19.88"/><path class="cls-15" d="M744.71,1720.58l38.8,24,.14.08-38.8-24-.14-.09"/></g></g></g><polygon class="cls-13" points="1263.28 879.62 1302.07 903.66 1260.04 1477.4 1221.24 1453.36 1263.28 879.62"/><g class="cls-12"><g class="cls-18"><g class="cls-12"><path class="cls-15" d="M1221.24,1453.36l38.8,24q-1.53,21-4,40.76l-38.8-24q2.43-19.78,4-40.76"/><path class="cls-19" d="M1217.27,1494.12l38.8,24a670.09,670.09,0,0,1-15.85,85.23l-38.8-24a670.09,670.09,0,0,0,15.85-85.23"/><path class="cls-20" d="M1201.42,1579.35l38.8,24a511.75,511.75,0,0,1-20.4,62.81l-38.8-24a511.75,511.75,0,0,0,20.4-62.81"/><path class="cls-21" d="M1181,1642.16l38.8,24a412.15,412.15,0,0,1-24.63,51.27l-38.8-24a412.15,412.15,0,0,0,24.63-51.27"/><path class="cls-22" d="M1156.39,1693.43l38.8,24a346.23,346.23,0,0,1-32.23,47.15l-38.8-24a346.23,346.23,0,0,0,32.23-47.15"/><path class="cls-23" d="M1124.16,1740.58l38.8,24c-61.19,75-146.47,110.59-244.19,114a478.16,478.16,0,0,1-51-1c-62.21-4.49-118.68-20.33-166-49.67l-38.8-24c47.37,29.34,103.84,45.18,166.05,49.67a478.16,478.16,0,0,0,51,1c97.72-3.41,183-39,244.19-114"/></g></g></g><path class="cls-24" d="M559.56,828.78l124.62,9-42.66,582.48C625.37,1640.72,713.35,1741,840.8,1750.21a285.22,285.22,0,0,0,30.66.62c124.91-4.36,209.77-96.27,224.52-297.73l42.67-582.48,124.62,9-42,573.74C1201,1730.2,1062.07,1848.22,880,1854.58a478.16,478.16,0,0,1-51-1c-195.36-14.11-334.2-140.06-311.85-445.21Z"/></g><g class="cls-12"><polygon class="cls-25" points="1199.37 1022.55 1220.7 1042.22 1084.81 1175.27 1063.47 1155.6 1199.37 1022.55"/><g class="cls-12"><g class="cls-26"><g class="cls-12"><path class="cls-27" d="M946,1337.92l21.34,19.66a183.38,183.38,0,0,0,35.64,65.8l-21.34-19.67A183.42,183.42,0,0,1,946,1337.92"/></g></g></g><g class="cls-12"><g class="cls-28"><g class="cls-12"><path class="cls-29" d="M560.44,1827.4l21.33,19.67c-4.09-3.78-9.78-5.45-16.33-5.22-12.67.46-28.53,8.08-42.23,21.49-2.09,2.05-4.06,4.16-5.89,6.3L496,1850q2.75-3.23,5.89-6.31c13.7-13.41,29.56-21,42.23-21.48,6.55-.24,12.24,1.43,16.34,5.21"/><path class="cls-30" d="M496,1850l21.34,19.66a87.75,87.75,0,0,0-8.57,11.93l-21.34-19.67A87.91,87.91,0,0,1,496,1850"/><path class="cls-31" d="M487.41,1861.9l21.34,19.67a71.5,71.5,0,0,0-4.64,9.2l-21.34-19.67a72.15,72.15,0,0,1,4.64-9.2"/><path class="cls-32" d="M482.77,1871.1l21.34,19.67a57.31,57.31,0,0,0-2.51,7.37l-21.34-19.67a59.44,59.44,0,0,1,2.51-7.37"/><path class="cls-33" d="M480.26,1878.47l21.34,19.67a46,46,0,0,0-1.19,6.16l-21.33-19.66a44.83,44.83,0,0,1,1.18-6.17"/><path class="cls-34" d="M479.08,1884.64l21.33,19.66a34.58,34.58,0,0,0-.22,5.52l-21.34-19.67a34.49,34.49,0,0,1,.23-5.51"/><path class="cls-35" d="M478.85,1890.15l21.34,19.67a25.7,25.7,0,0,0,.9,5.94l-21.34-19.66a27,27,0,0,1-.9-5.95"/><path class="cls-27" d="M479.75,1896.1l21.34,19.66a19.4,19.4,0,0,0,3.73,7.27l-21.33-19.66a19.5,19.5,0,0,1-3.74-7.27"/><path class="cls-35" d="M483.49,1903.37,504.82,1923c.21.25.41.49.63.72s.65.67,1,1l-21.33-19.67c-.34-.31-.67-.64-1-1s-.42-.47-.62-.71"/></g></g></g><g class="cls-12"><g class="cls-36"><g class="cls-12"><path class="cls-27" d="M946,1337.92l21.34,19.66a183.38,183.38,0,0,0,35.64,65.8l-21.34-19.67A183.42,183.42,0,0,1,946,1337.92"/></g></g></g><g class="cls-12"><g class="cls-37"><g class="cls-12"><path class="cls-27" d="M946,1337.92l21.34,19.66a183.38,183.38,0,0,0,35.64,65.8l-21.34-19.67A183.42,183.42,0,0,1,946,1337.92"/><path class="cls-35" d="M981.64,1403.71l21.34,19.67c1.65,1.95,3.36,3.87,5.11,5.76l-21.34-19.67q-2.62-2.84-5.11-5.76"/></g></g></g><polygon class="cls-38" points="1063.47 1155.6 1084.81 1175.27 1078.13 1360.56 1056.8 1340.89 1063.47 1155.6"/><g class="cls-12"><g class="cls-39"><g class="cls-12"><path class="cls-35" d="M986.75,1409.47l21.34,19.67q4.83,5.2,10,10l-21.34-19.67q-5.15-4.74-10-10"/></g></g></g><g class="cls-12"><g class="cls-40"><g class="cls-12"><path class="cls-29" d="M541.92,1961.41l21.34,19.67c-14.71,14.4-33,22-50.55,22.66-15.49.56-30.4-4.32-41.76-14.79l-21.34-19.67c11.36,10.47,26.28,15.36,41.77,14.79,17.55-.63,35.83-8.26,50.54-22.66"/></g></g></g><g class="cls-12"><g class="cls-41"><g class="cls-12"><path class="cls-42" d="M1310.46,1375.81l21.33,19.66q-8,9.39-17,18.23c-47.32,46.32-106.14,70.86-162.56,72.92a197.58,197.58,0,0,1-72.9-10.77,176.62,176.62,0,0,1-61.25-36.75l-21.34-19.67a176.63,176.63,0,0,0,61.26,36.76,197.34,197.34,0,0,0,72.9,10.76c56.41-2,115.23-26.59,162.55-72.92q9-8.82,17-18.22"/></g></g></g><path class="cls-43" d="M986.75,1409.47a176.5,176.5,0,0,0,71.24,46.72L541.92,1961.41c-14.71,14.4-33,22-50.54,22.66-16.95.62-33.2-5.28-44.87-17.89l-24.59-26.55c-23.76-25.66-19.6-69.44,9.32-97.75l514.76-504A182.73,182.73,0,0,0,986.75,1409.47Zm-443.11,479.3c21.36-20.91,29.29-48,17.79-60.38-4.14-4.47-10.23-6.46-17.33-6.2-12.67.46-28.53,8.07-42.23,21.48-21.36,20.91-29.28,48-17.76,60.41,4.13,4.46,10.21,6.44,17.29,6.18,12.67-.46,28.54-8.07,42.24-21.49"/><polygon class="cls-44" points="1057.99 1456.19 1079.32 1475.85 563.26 1981.08 541.92 1961.41 1057.99 1456.19"/><g class="cls-12"><g class="cls-45"><g class="cls-12"><path class="cls-46" d="M1373,1210.08l21.34,19.67a230.08,230.08,0,0,1-1.57,28.75l-21.34-19.67a228.09,228.09,0,0,0,1.57-28.75"/><path class="cls-47" d="M1371.44,1238.83l21.34,19.67a243,243,0,0,1-6.31,33.21L1365.13,1272a241.18,241.18,0,0,0,6.31-33.21"/><path class="cls-48" d="M1365.13,1272l21.34,19.67a255.4,255.4,0,0,1-11,32.69l-21.34-19.66a253.48,253.48,0,0,0,11-32.7"/><path class="cls-49" d="M1354.11,1304.74l21.34,19.66a264.22,264.22,0,0,1-16.91,33.72l-21.34-19.67a264.76,264.76,0,0,0,16.91-33.71"/><path class="cls-50" d="M1337.2,1338.45l21.34,19.67a270.59,270.59,0,0,1-26.75,37.35l-21.33-19.66a271.45,271.45,0,0,0,26.74-37.36"/><path class="cls-42" d="M1310.46,1375.81l21.33,19.66q-8,9.39-17,18.23c-47.32,46.32-106.14,70.86-162.56,72.92a197.58,197.58,0,0,1-72.9-10.77,176.62,176.62,0,0,1-61.25-36.75l-21.34-19.67a176.63,176.63,0,0,0,61.26,36.76,197.34,197.34,0,0,0,72.9,10.76c56.41-2,115.23-26.59,162.55-72.92q9-8.82,17-18.22"/></g></g></g><path class="cls-51" d="M1179.29,1022.33q10.1-.37,20.08.23l-135.9,133-6.67,185.29,180.32,2.24L1373,1210.08c.57,64.11-26.59,132.07-79.57,184-47.32,46.33-106.14,70.87-162.55,72.92a197.34,197.34,0,0,1-72.9-10.76,176.5,176.5,0,0,1-71.24-46.72A182.86,182.86,0,0,1,946,1337.92c-23.84-78.55,1.19-174.53,70.78-242.66C1064.12,1048.92,1122.91,1024.38,1179.29,1022.33Z"/></g><g class="cls-5"><g class="cls-12"><polygon class="cls-52" points="683.03 838.28 725.66 863.63 685.55 1446.17 642.93 1420.83 683.03 838.28"/><g class="cls-12"><g class="cls-53"><g class="cls-12"><path class="cls-15" d="M642.93,1420.83l42.62,25.34q-1.39,20.38-1.64,39.39l-42.62-25.34q.24-19,1.64-39.39"/><path class="cls-16" d="M641.29,1460.22l42.62,25.34c-.41,31.45,1.51,60.11,5.52,86.1l-42.62-25.34c-4-26-5.93-54.66-5.52-86.1"/><path class="cls-17" d="M646.81,1546.32l42.62,25.34c11.07,71.72,38.09,123.09,76.22,156.33L723,1702.64c-38.13-33.23-65.15-84.6-76.22-156.32"/><path class="cls-16" d="M723,1702.64,765.65,1728a182.85,182.85,0,0,0,24.71,18.11l-42.62-25.35A180.54,180.54,0,0,1,723,1702.64"/><path class="cls-15" d="M747.74,1720.75l42.62,25.35c.6.36,1.2.73,1.81,1.08l-42.63-25.34-1.8-1.09"/></g></g></g><polygon class="cls-52" points="1261.63 876.93 1304.25 902.28 1264.74 1476.08 1222.12 1450.73 1261.63 876.93"/><g class="cls-12"><g class="cls-54"><g class="cls-12"><path class="cls-15" d="M1222.12,1450.73l42.62,25.35q-2.29,33.36-6.86,63.7l-42.62-25.35q4.54-30.35,6.86-63.7"/><path class="cls-19" d="M1215.26,1514.43l42.62,25.35a626.69,626.69,0,0,1-16.5,77.7l-42.62-25.35a627.73,627.73,0,0,0,16.5-77.7"/><path class="cls-20" d="M1198.76,1592.13l42.62,25.35a486.64,486.64,0,0,1-20.33,58.13l-42.63-25.34a488.57,488.57,0,0,0,20.34-58.14"/><path class="cls-21" d="M1178.42,1650.27l42.63,25.34a400.82,400.82,0,0,1-24.43,48.36L1154,1698.62a398.46,398.46,0,0,0,24.42-48.35"/><path class="cls-22" d="M1154,1698.62l42.62,25.35a340.75,340.75,0,0,1-32,45.09L1122,1743.71a339.22,339.22,0,0,0,32-45.09"/><path class="cls-23" d="M1122,1743.71l42.63,25.35c-60.47,71.71-143.76,106.14-239,110a478.81,478.81,0,0,1-51-.74c-60.72-4.06-116-19-162.76-46.76l-42.63-25.34C716,1834,771.29,1848.91,832,1853a473.62,473.62,0,0,0,51,.74c95.27-3.85,178.57-38.27,239-110"/></g></g></g><path class="cls-55" d="M558.52,830,683,838.29l-40.11,582.54c-15.18,220.47,73.13,320.24,200.47,328.75A286.47,286.47,0,0,0,874,1750c124.74-5,209.1-97.4,223-298.87l40.11-582.55,124.52,8.32-39.51,573.8c-19.06,276.87-157.29,395.62-339.15,403a473.62,473.62,0,0,1-51-.74c-195.19-13-334.4-138.19-313.39-443.36Z"/></g></g></g></svg>